<svg id="Layer_1" data-name="Layer 1" xmlns="http://www.w3.org/2000/svg" viewBox="0 0 397.5 102"><defs><style>.cls-1{fill:#273a56;}.cls-2{fill:#399;}.cls-3{fill:#fff;}</style></defs><title>theEXchange_Original_FINAL_tosend</title><polygon class="cls-1" points="126.43 67.85 109.86 43.27 103.85 52.22 114.4 67.89 126.43 67.85"/><polygon class="cls-1" points="126.4 14.19 114.35 14.19 103.83 29.85 109.86 38.8 126.4 14.19"/><polygon class="cls-2" points="96.31 41.04 100.82 34.33 90.27 18.66 90.3 63.41 100.83 47.75 96.31 41.04"/><path class="cls-1" d="M145.07,67.67A23.33,23.33,0,0,1,121.47,44c0-13.06,10-23.95,23.69-23.95,8.65,0,14,3.2,18.24,7.87l-6.48,7c-3.2-3.37-6.57-5.71-11.85-5.71-7.61,0-13.14,6.57-13.14,14.61,0,8.21,5.62,14.79,13.66,14.79,4.93,0,8.56-2.33,11.85-5.71l6.31,6.23C159.25,64.12,154,67.67,145.07,67.67Z"/><path class="cls-1" d="M177.32,66.63H166.86V3.51h10.46V28.07c2.94-4.32,7.18-8,14.27-8,10.29,0,16.26,6.92,16.26,17.55V66.63H197.38V40.69c0-7.09-3.54-11.15-9.77-11.15-6.05,0-10.29,4.24-10.29,11.33Z"/><path class="cls-1" d="M241.91,66.63V61c-3.11,3.72-7.87,6.57-14.79,6.57-8.65,0-16.25-4.93-16.25-14.09v-.17c0-9.86,7.87-14.7,18.5-14.7A38.44,38.44,0,0,1,242,40.52V39.4c0-6.31-4-9.77-11.24-9.77a31.78,31.78,0,0,0-13.06,2.85l-2.85-8.39a39.16,39.16,0,0,1,17.38-3.8c13.49,0,20.06,7.09,20.06,19.28V66.63Zm.26-19.37a29.89,29.89,0,0,0-10.46-1.82c-6.57,0-10.46,2.68-10.46,7.35V53c0,4.32,3.89,6.74,8.82,6.74,6.92,0,12.11-3.89,12.11-9.6Z"/><path class="cls-1" d="M267,66.63H256.51V21H267v7.09c2.94-4.32,7.18-8,14.27-8,10.29,0,16.25,6.92,16.25,17.55V66.63H287V40.69c0-7.09-3.54-11.15-9.77-11.15-6.05,0-10.29,4.24-10.29,11.33Z"/><path class="cls-1" d="M324,80.64a39.33,39.33,0,0,1-20.41-5.45l3.89-7.87a29.7,29.7,0,0,0,16.25,4.84c9.34,0,14.44-4.84,14.44-14V54.61C334.33,59.54,329.57,63,322,63c-10.72,0-20.75-7.87-20.75-21.44S311.42,20,322,20c7.69,0,12.45,3.54,16,7.78V21h10.46V57.29C348.51,73.46,339.69,80.64,324,80.64Zm.86-51.79c-7.26,0-13,5-13,12.62s5.79,12.71,13,12.71,13.4-5.1,13.4-12.62C338.22,33.86,332.08,28.85,324.82,28.85Z"/><path class="cls-1" d="M376.17,59.11c5.1,0,8.73-1.9,12.36-5.45l6.14,5.45A23.09,23.09,0,0,1,376,67.67c-13.23,0-23.43-9.6-23.43-23.78,0-13.14,9.25-23.86,22.31-23.86,14.53,0,21.87,11.41,21.87,24.64,0,1-.09,1.82-.17,2.85H363C364.24,55,369.43,59.11,376.17,59.11Zm10.2-18.5c-.69-6.74-4.67-12-11.59-12-6.4,0-10.89,4.93-11.85,12Z"/><rect class="cls-2" x="0.75" y="0.69" width="94.8" height="80.69" rx="7.2" ry="7.2"/><polygon class="cls-2" points="66.04 65.93 56.29 101.15 86.6 65.93 66.04 65.93"/><path class="cls-3" d="M27.19,63.92a2,2,0,0,0,2.3-2.32,4.34,4.34,0,0,0-.48-2h1.76a5.17,5.17,0,0,1,.59,2.49c0,2.22-1.1,3.9-3.9,3.9H19.11v1.92H17.3V66H13.13V63.92H17.3V59.54h1.82v4.38Z"/><path class="cls-3" d="M31.12,55.19v2.06H11.6V55.19h8.1A5.23,5.23,0,0,1,17,50.45c0-3.34,2.25-5.29,5.53-5.29h8.58v2.06H23c-2.57,0-4.17,1.39-4.17,3.82a4.07,4.07,0,0,0,4.33,4.14Z"/><path class="cls-3" d="M29.65,36a5.72,5.72,0,0,0-2-4.36l1.15-1.28a7.13,7.13,0,0,1,2.59,5.69A6.88,6.88,0,0,1,24.22,43c-4,0-7.22-2.81-7.22-6.63,0-4.09,3.26-6.44,7.32-6.44a5.47,5.47,0,0,1,.64,0v11A4.84,4.84,0,0,0,29.65,36Zm-6.2-4c-2.51.21-4.7,1.66-4.7,4.41,0,2.41,2,4.22,4.7,4.49Z"/><rect class="cls-3" x="36.12" y="35.59" width="39.34" height="10.89"/><path class="cls-3" d="M75.46,25.08H36.12V19.39a5.2,5.2,0,0,1,5.2-5.2H75.4Z"/><path class="cls-3" d="M75.46,67.89H41.26a5.14,5.14,0,0,1-5.14-5.14V57H75.4Z"/><path class="cls-1" d="M90.31,67.89l18-26.85L90.26,14.18l-12,0L96.31,41,78.26,67.89Z"/></svg>