<?xml version="1.0" encoding="utf-8"?>
<!-- Generated by IcoMoon.io -->
<svg version="1.1" xmlns="http://www.w3.org/2000/svg" xmlns:xlink="http://www.w3.org/1999/xlink" width="752" height="176" viewBox="0 0 752 176">
<svg id="icon-angle-circled-left" width="27" height="32" viewBox="0 0 27 32" x="0" y="0">
<path d="M16.224 24.896l1.824-1.824q0.352-0.32 0.352-0.8t-0.352-0.8l-5.472-5.472 5.472-5.472q0.352-0.352 0.352-0.8t-0.352-0.832l-1.824-1.824q-0.32-0.32-0.8-0.32t-0.8 0.32l-8.096 8.128q-0.352 0.32-0.352 0.8t0.352 0.8l8.096 8.096q0.352 0.352 0.8 0.352t0.8-0.352zM27.424 16q0 3.744-1.824 6.88t-4.992 4.992-6.88 1.856-6.912-1.856-4.96-4.992-1.856-6.88 1.856-6.88 4.96-4.992 6.912-1.856 6.88 1.856 4.992 4.992 1.824 6.88z"></path>
</svg>
<svg id="icon-angle-up" width="21" height="32" viewBox="0 0 21 32" x="48" y="0">
<path d="M19.2 21.152q0 0.224-0.192 0.384l-0.896 0.896q-0.16 0.192-0.384 0.192t-0.416-0.192l-7.040-7.008-7.008 7.008q-0.16 0.192-0.416 0.192t-0.384-0.192l-0.896-0.896q-0.192-0.16-0.192-0.384t0.192-0.416l8.32-8.32q0.16-0.192 0.384-0.192t0.416 0.192l8.32 8.32q0.192 0.16 0.192 0.416z"></path>
</svg>
<svg id="icon-angle-right" width="11" height="32" viewBox="0 0 11 32" x="96" y="0">
<path d="M10.624 17.152q0 0.224-0.16 0.384l-8.352 8.352q-0.16 0.16-0.384 0.16t-0.416-0.16l-0.896-0.896q-0.192-0.192-0.192-0.416t0.192-0.416l7.008-7.008-7.008-7.040q-0.192-0.16-0.192-0.384t0.192-0.416l0.896-0.896q0.16-0.192 0.416-0.192t0.384 0.192l8.352 8.32q0.16 0.16 0.16 0.416z"></path>
</svg>
<svg id="icon-angle-left" width="11" height="32" viewBox="0 0 11 32" x="144" y="0">
<path d="M11.2 9.728q0 0.224-0.192 0.384l-7.008 7.040 7.008 7.008q0.192 0.192 0.192 0.416t-0.192 0.416l-0.896 0.896q-0.16 0.16-0.384 0.16t-0.416-0.16l-8.32-8.352q-0.192-0.16-0.192-0.384t0.192-0.416l8.32-8.32q0.16-0.192 0.416-0.192t0.384 0.192l0.896 0.896q0.192 0.16 0.192 0.416z"></path>
</svg>
<svg id="icon-right-open" width="23" height="32" viewBox="0 0 23 32" x="192" y="0">
<path d="M19.776 15.648l-13.248 13.28q-0.352 0.32-0.8 0.32t-0.8-0.32l-2.976-2.976q-0.352-0.352-0.352-0.8t0.352-0.8l9.472-9.504-9.472-9.472q-0.352-0.352-0.352-0.8t0.352-0.8l2.976-2.976q0.32-0.352 0.8-0.352t0.8 0.352l13.248 13.248q0.32 0.352 0.32 0.8t-0.32 0.8z"></path>
</svg>
<svg id="icon-down-open" width="32" height="32" viewBox="0 0 32 32" x="240" y="0">
<path d="M30.048 14.432l-13.248 13.216q-0.32 0.352-0.8 0.352t-0.8-0.352l-13.248-13.216q-0.352-0.352-0.352-0.832t0.352-0.8l2.976-2.944q0.32-0.352 0.8-0.352t0.8 0.352l9.472 9.472 9.472-9.472q0.352-0.352 0.8-0.352t0.832 0.352l2.944 2.944q0.352 0.352 0.352 0.8t-0.352 0.832z"></path>
</svg>
<svg id="icon-left-open" width="23" height="32" viewBox="0 0 23 32" x="288" y="0">
<path d="M20.928 5.376l-9.504 9.472 9.504 9.504q0.32 0.32 0.32 0.8t-0.32 0.8l-2.976 2.976q-0.352 0.32-0.8 0.32t-0.8-0.32l-13.248-13.28q-0.352-0.32-0.352-0.8t0.352-0.8l13.248-13.248q0.32-0.352 0.8-0.352t0.8 0.352l2.976 2.976q0.32 0.32 0.32 0.8t-0.32 0.8z"></path>
</svg>
<svg id="icon-twitter" width="30" height="32" viewBox="0 0 30 32" x="336" y="0">
<path d="M28.928 7.296q-1.184 1.728-2.88 2.976 0 0.256 0 0.736 0 2.336-0.672 4.64t-2.048 4.448-3.296 3.744-4.608 2.624-5.792 0.96q-4.832 0-8.832-2.592 0.608 0.064 1.376 0.064 4.032 0 7.168-2.464-1.888-0.032-3.36-1.152t-2.048-2.848q0.608 0.096 1.088 0.096 0.768 0 1.536-0.192-2.016-0.416-3.328-1.984t-1.312-3.68v-0.064q1.216 0.672 2.624 0.736-1.184-0.8-1.888-2.048t-0.704-2.752q0-1.568 0.8-2.912 2.176 2.656 5.248 4.256t6.656 1.76q-0.16-0.672-0.16-1.312 0-2.4 1.696-4.064t4.064-1.696q2.528 0 4.224 1.824 1.952-0.384 3.68-1.408-0.672 2.048-2.56 3.2 1.664-0.192 3.328-0.896z"></path>
</svg>
<svg id="icon-facebook" width="18" height="32" viewBox="0 0 18 32" x="384" y="0">
<path d="M17.12 0.224v4.704h-2.784q-1.536 0-2.080 0.64t-0.544 1.92v3.392h5.248l-0.704 5.28h-4.544v13.568h-5.472v-13.568h-4.544v-5.28h4.544v-3.904q0-3.328 1.856-5.152t4.96-1.824q2.624 0 4.064 0.224z"></path>
</svg>
<svg id="icon-rss" width="25" height="32" viewBox="0 0 25 32" x="432" y="0">
<path d="M6.848 24q0 1.44-0.992 2.432t-2.432 0.992-2.432-0.992-0.992-2.432 0.992-2.432 2.432-0.992 2.432 0.992 0.992 2.432zM16 26.208q0.032 0.48-0.288 0.832-0.32 0.384-0.864 0.384h-2.4q-0.448 0-0.768-0.288t-0.352-0.736q-0.384-4.096-3.296-7.008t-7.008-3.296q-0.448-0.032-0.736-0.352t-0.288-0.768v-2.4q0-0.512 0.384-0.832 0.288-0.32 0.768-0.32h0.096q2.848 0.224 5.44 1.44t4.64 3.232q2.016 2.016 3.232 4.64t1.44 5.472zM25.152 26.24q0.032 0.48-0.32 0.832-0.32 0.352-0.832 0.352h-2.56q-0.448 0-0.8-0.32t-0.32-0.736q-0.224-3.84-1.824-7.296t-4.128-6.016-6.016-4.128-7.264-1.824q-0.448-0.032-0.768-0.352t-0.32-0.768v-2.56q0-0.512 0.352-0.832 0.32-0.32 0.8-0.32h0.032q4.704 0.256 8.96 2.144t7.616 5.248q3.328 3.328 5.248 7.616t2.144 8.96z"></path>
</svg>
<svg id="icon-youtube" width="32" height="32" viewBox="0 0 32 32" x="480" y="0">
<path d="M25.792 1.376h-19.648c-2.656 0-4.8 2.144-4.8 4.8v19.648c0 2.656 2.144 4.8 4.8 4.8h19.648c2.656 0 4.8-2.144 4.8-4.8v-19.648c0-2.656-2.144-4.8-4.8-4.8zM26.784 16.8c0 1.76-0.224 3.52-0.224 3.52s-0.192 1.472-0.864 2.112c-0.8 0.864-1.728 0.864-2.144 0.928-3.008 0.224-7.552 0.224-7.552 0.224s-5.6-0.064-7.328-0.224c-0.48-0.096-1.568-0.064-2.368-0.928-0.64-0.64-0.864-2.112-0.864-2.112s-0.224-1.76-0.224-3.52v-1.632c0-1.728 0.224-3.488 0.224-3.488s0.224-1.472 0.864-2.144c0.8-0.832 1.728-0.864 2.144-0.896 3.040-0.224 7.552-0.224 7.552-0.224v0c0 0 4.544 0 7.552 0.224 0.416 0.032 1.344 0.064 2.144 0.896 0.672 0.672 0.864 2.144 0.864 2.144s0.224 1.76 0.224 3.488v1.632zM13.792 18.784l5.824-3.008-5.824-3.040v6.048z"></path>
</svg>
<svg id="icon-flickr" width="29" height="32" viewBox="0 0 29 32" x="528" y="0">
<path d="M6.272 22.4q-2.56 0-4.416-1.888t-1.856-4.512q0-2.688 1.824-4.544t4.448-1.856 4.448 1.856 1.824 4.544q0 2.624-1.856 4.512t-4.416 1.888zM22.528 22.4q-2.56 0-4.416-1.888t-1.856-4.512q0-2.688 1.824-4.544t4.448-1.856 4.448 1.856 1.824 4.544q0 2.624-1.856 4.512t-4.416 1.888z"></path>
</svg>
<svg id="icon-linkedin" width="27" height="32" viewBox="0 0 27 32" x="576" y="0">
<path d="M6.24 11.168v17.696h-5.888v-17.696h5.888zM6.624 5.696q0 1.312-0.928 2.176t-2.4 0.864h-0.032q-1.472 0-2.368-0.864t-0.896-2.176 0.928-2.176 2.4-0.864 2.368 0.864 0.928 2.176zM27.424 18.72v10.144h-5.856v-9.472q0-1.888-0.736-2.944t-2.272-1.056q-1.12 0-1.856 0.608t-1.152 1.536q-0.192 0.544-0.192 1.44v9.888h-5.888q0.032-7.136 0.032-11.552t0-5.28l-0.032-0.864h5.888v2.56h-0.032q0.352-0.576 0.736-0.992t0.992-0.928 1.568-0.768 2.048-0.288q3.040 0 4.896 2.016t1.856 5.952z"></path>
</svg>
<svg id="icon-pinterest" width="23" height="32" viewBox="0 0 23 32" x="624" y="0">
<path d="M0 10.656q0-1.92 0.672-3.616t1.856-2.976 2.72-2.208 3.296-1.408 3.616-0.448q2.816 0 5.248 1.184t3.936 3.456 1.504 5.12q0 1.728-0.32 3.36t-1.088 3.168-1.792 2.656-2.56 1.856-3.392 0.672q-1.216 0-2.4-0.576t-1.728-1.568q-0.16 0.704-0.48 2.016t-0.448 1.696-0.352 1.28-0.48 1.248-0.544 1.12-0.832 1.408-1.12 1.536l-0.224 0.096-0.16-0.192q-0.288-2.816-0.288-3.36 0-1.632 0.384-3.68t1.184-5.152 0.928-3.616q-0.576-1.152-0.576-3.008 0-1.504 0.928-2.784t2.368-1.312q1.088 0 1.696 0.736t0.608 1.824q0 1.184-0.768 3.392t-0.8 3.36q0 1.12 0.8 1.856t1.952 0.736q0.992 0 1.824-0.448t1.408-1.216 0.992-1.696 0.672-1.952 0.352-1.984 0.128-1.792q0-3.072-1.952-4.8t-5.12-1.728q-3.552 0-5.952 2.304t-2.4 5.856q0 0.8 0.224 1.536t0.48 1.152 0.48 0.832 0.224 0.544q0 0.48-0.256 1.28t-0.672 0.8q-0.032 0-0.288-0.032-0.928-0.288-1.632-0.992t-1.088-1.696-0.576-1.92-0.192-1.92z"></path>
</svg>
<svg id="icon-email" width="32" height="32" viewBox="0 0 32 32" x="672" y="0">
<path d="M32 12.672v14.176q0 1.184-0.832 2.016t-2.016 0.864h-26.304q-1.152 0-2.016-0.864t-0.832-2.016v-14.176q0.8 0.864 1.792 1.568 6.464 4.384 8.896 6.144 1.024 0.768 1.632 1.184t1.696 0.864 1.952 0.416h0.064q0.896 0 1.952-0.416t1.696-0.864 1.632-1.184q3.040-2.176 8.896-6.144 1.024-0.704 1.792-1.568zM32 7.424q0 1.408-0.864 2.688t-2.176 2.208q-6.72 4.672-8.384 5.792-0.16 0.128-0.736 0.544t-0.96 0.704-0.928 0.576-1.024 0.48-0.896 0.16h-0.064q-0.384 0-0.864-0.16t-1.024-0.48-0.96-0.576-0.96-0.704-0.736-0.544q-1.632-1.12-4.704-3.232t-3.648-2.56q-1.12-0.736-2.080-2.048t-0.992-2.464q0-1.376 0.736-2.304t2.112-0.928h26.304q1.152 0 2.016 0.832t0.832 2.016z"></path>
</svg>
<svg id="icon-youtube-play" width="32" height="32" viewBox="0 0 32 32" x="720" y="0">
<path d="M12.704 20.128l8.64-4.448-8.64-4.512v8.96zM16 4.736q3.008 0 5.792 0.096t4.096 0.16l1.312 0.064q0 0 0.288 0.032t0.416 0.064 0.416 0.064 0.512 0.16 0.512 0.224 0.544 0.352 0.512 0.48q0.128 0.096 0.288 0.32t0.512 1.056 0.48 1.792q0.128 1.152 0.224 2.432t0.096 2.048v3.136q0.032 2.592-0.32 5.184-0.128 0.96-0.448 1.76t-0.576 1.12l-0.256 0.288q-0.224 0.256-0.512 0.48t-0.544 0.32-0.512 0.224-0.512 0.16-0.416 0.064-0.416 0.064-0.288 0.032q-4.48 0.352-11.2 0.352-3.68-0.064-6.432-0.128t-3.552-0.128l-0.896-0.096-0.64-0.064q-0.64-0.096-0.96-0.16t-0.928-0.384-0.992-0.736q-0.128-0.096-0.288-0.32t-0.512-1.056-0.48-1.792q-0.128-1.152-0.224-2.432t-0.096-2.048v-3.136q-0.032-2.592 0.32-5.184 0.128-0.992 0.448-1.76t0.576-1.12l0.256-0.288q0.256-0.288 0.512-0.48t0.544-0.352 0.512-0.224 0.512-0.16 0.416-0.064 0.416-0.064 0.288-0.032q4.48-0.32 11.2-0.32z"></path>
</svg>
<svg id="icon-angle-down" width="21" height="32" viewBox="0 0 21 32" x="0" y="48">
<path d="M19.2 13.152q0 0.224-0.192 0.384l-8.32 8.352q-0.16 0.16-0.416 0.16t-0.384-0.16l-8.32-8.352q-0.192-0.16-0.192-0.384t0.192-0.416l0.896-0.896q0.16-0.192 0.384-0.192t0.416 0.192l7.008 7.008 7.040-7.008q0.16-0.192 0.416-0.192t0.384 0.192l0.896 0.896q0.192 0.16 0.192 0.416z"></path>
</svg>
<svg id="icon-up-open" width="32" height="32" viewBox="0 0 32 32" x="48" y="48">
<path d="M30.048 23.776l-2.944 2.944q-0.352 0.32-0.832 0.32t-0.8-0.32l-9.472-9.504-9.472 9.504q-0.352 0.32-0.8 0.32t-0.8-0.32l-2.976-2.944q-0.352-0.352-0.352-0.832t0.352-0.8l13.248-13.248q0.352-0.32 0.8-0.32t0.8 0.32l13.248 13.248q0.352 0.352 0.352 0.8t-0.352 0.832z"></path>
</svg>
<svg id="icon-gavel" width="32" height="32" viewBox="0 0 32 32" x="96" y="48">
<path d="M12.768 8.16v0c-0.8-0.8-0.8-1.824-0.192-2.4l5.216-5.216c0.576-0.608 1.6-0.608 2.4 0l0.192 0.192c0.608 0.608 0.608 1.6 0 2.4l-5.216 5.024c-0.576 0.576-1.792 0.576-2.4 0zM23.968 19.36v0c-0.8-0.8-0.8-1.824-0.192-2.624l5.216-5.184c0.576-0.608 1.6-0.608 2.4 0l0.192 0.192c0.608 0.608 0.608 1.6 0 2.4l-5.216 5.216c-0.8 0.576-1.792 0.576-2.4 0zM19.968 15.36l-3.392-3.424c-0.8-0.8-0.8-1.984 0-2.784l4.608-4.608c0.8-0.8 1.984-0.8 2.784 0l3.424 3.392c0.8 0.8 0.8 2.016 0 2.816l-4.608 4.608c-0.8 0.8-2.016 0.8-2.816 0zM7.968 28.352c1.216-1.216 8-11.2 9.024-10.592 0.8 0.384 1.984-1.024 1.984-1.024l-3.808-3.776c0 0-1.376 1.184-0.992 1.984 0.608 0.992-9.408 7.808-10.592 8.992 0 0-5.6 4.416-2.816 7.2s7.2-2.784 7.2-2.784z"></path>
</svg>
<svg id="icon-chat" width="32" height="32" viewBox="0 0 32 32" x="144" y="48">
<path d="M25.152 13.728q0 2.464-1.696 4.576t-4.576 3.328-6.304 1.216q-1.536 0-3.136-0.288-2.24 1.568-4.96 2.304-0.672 0.16-1.536 0.288h-0.064q-0.192 0-0.384-0.16t-0.192-0.384q-0.032-0.032-0.032-0.096t0.032-0.128 0.032-0.096l0.032-0.096t0.064-0.096 0.064-0.096 0.096-0.096 0.064-0.064q0.096-0.096 0.416-0.448t0.48-0.512 0.384-0.544 0.448-0.672 0.352-0.8q-2.208-1.28-3.456-3.136t-1.28-4q0-2.496 1.696-4.608t4.576-3.328 6.304-1.216 6.304 1.216 4.576 3.328 1.696 4.608zM32 18.272q0 2.144-1.28 4.032t-3.456 3.136q0.16 0.448 0.352 0.8t0.448 0.672 0.416 0.512 0.448 0.544 0.416 0.448q0 0 0.064 0.064t0.096 0.096 0.064 0.096 0.064 0.096l0.032 0.096t0.032 0.096 0.032 0.128-0.032 0.096q-0.064 0.256-0.224 0.416t-0.384 0.128q-0.896-0.128-1.536-0.288-2.752-0.736-4.992-2.304-1.6 0.288-3.136 0.288-4.832 0-8.416-2.368 1.024 0.096 1.568 0.096 2.88 0 5.504-0.8t4.736-2.304q2.208-1.664 3.424-3.808t1.184-4.512q0-1.376-0.416-2.72 2.304 1.248 3.648 3.168t1.344 4.096z"></path>
</svg>
<svg id="icon-search" width="32" height="32" viewBox="0 0 32 32" x="192" y="48">
<path d="M23.872 12.064c0-6.528-5.28-11.84-11.808-11.84s-11.84 5.312-11.84 11.84 5.312 11.808 11.84 11.808c6.528 0 11.808-5.28 11.808-11.808zM12.064 20.928c-4.928 0-8.896-3.968-8.896-8.864s3.968-8.896 8.896-8.896c4.896 0 8.864 3.968 8.864 8.896s-3.968 8.864-8.864 8.864zM30.912 26.72l-7.232-7.232c-1.088 1.664-2.496 3.072-4.192 4.16l7.232 7.232c1.152 1.152 3.040 1.152 4.192 0 1.152-1.12 1.152-3.008 0-4.16z"></path>
</svg>
<svg id="icon-papers" width="32" height="32" viewBox="0 0 32 32" x="240" y="48">
<path d="M30.272 6.848q0.736 0 1.216 0.512t0.512 1.216v21.696q0 0.736-0.512 1.216t-1.216 0.512h-17.12q-0.736 0-1.216-0.512t-0.512-1.216v-5.12h-9.696q-0.736 0-1.216-0.512t-0.512-1.216v-12q0-0.704 0.352-1.568t0.864-1.344l7.296-7.296q0.48-0.512 1.344-0.864t1.568-0.352h7.424q0.736 0 1.216 0.512t0.512 1.216v5.856q1.216-0.736 2.272-0.736h7.424zM20.576 10.656l-5.344 5.344h5.344v-5.344zM9.152 3.808l-5.344 5.344h5.344v-5.344zM12.64 15.36l5.632-5.632v-7.456h-6.848v7.456q0 0.704-0.48 1.184t-1.216 0.512h-7.456v11.424h9.152v-4.576q0-0.704 0.352-1.568t0.864-1.344zM29.728 29.728v-20.576h-6.88v7.424q0 0.704-0.48 1.216t-1.216 0.48h-7.424v11.456h16z"></path>
</svg>
<svg id="icon-search-1" width="30" height="32" viewBox="0 0 30 32" x="288" y="48">
<path d="M20.576 14.848q0-3.296-2.336-5.632t-5.664-2.368-5.664 2.368-2.336 5.632 2.336 5.664 5.664 2.336 5.664-2.336 2.336-5.664zM29.728 29.728q0 0.928-0.704 1.6t-1.6 0.672q-0.96 0-1.6-0.672l-6.112-6.112q-3.2 2.208-7.136 2.208-2.56 0-4.896-0.992t-4-2.688-2.688-4-0.992-4.896 0.992-4.864 2.688-4.032 4-2.688 4.896-0.992 4.896 0.992 4 2.688 2.688 4.032 0.992 4.864q0 3.936-2.208 7.136l6.112 6.112q0.672 0.672 0.672 1.632z"></path>
</svg>
<svg id="icon-mail" width="32" height="32" viewBox="0 0 32 32" x="336" y="48">
<path d="M29.728 26.848v-13.696q-0.576 0.64-1.248 1.152-4.768 3.68-7.616 6.048-0.896 0.768-1.472 1.184t-1.536 0.896-1.824 0.416h-0.064q-0.832 0-1.824-0.416t-1.536-0.896-1.472-1.184q-2.816-2.368-7.616-6.048-0.672-0.512-1.248-1.152v13.696q0 0.224 0.192 0.416t0.384 0.16h26.304q0.224 0 0.384-0.16t0.192-0.416zM29.728 8.096v-0.448t-0.032-0.224-0.032-0.224-0.096-0.16-0.16-0.128-0.256-0.064h-26.304q-0.224 0-0.384 0.192t-0.192 0.384q0 3.008 2.656 5.088 3.424 2.688 7.136 5.632 0.128 0.096 0.64 0.544t0.8 0.672 0.8 0.544 0.896 0.512 0.768 0.16h0.064q0.352 0 0.768-0.16t0.896-0.512 0.8-0.544 0.8-0.672 0.64-0.544q3.712-2.944 7.168-5.632 0.96-0.768 1.792-2.080t0.832-2.336zM32 7.424v19.424q0 1.184-0.832 2.016t-2.016 0.864h-26.304q-1.152 0-2.016-0.864t-0.832-2.016v-19.424q0-1.184 0.832-2.016t2.016-0.832h26.304q1.184 0 2.016 0.832t0.832 2.016z"></path>
</svg>
<svg id="icon-cancel" width="25" height="32" viewBox="0 0 25 32" x="384" y="48">
<path d="M23.168 23.616q0 0.704-0.48 1.216l-2.432 2.432q-0.512 0.48-1.216 0.48t-1.216-0.48l-5.248-5.28-5.248 5.28q-0.512 0.48-1.216 0.48t-1.216-0.48l-2.432-2.432q-0.512-0.512-0.512-1.216t0.512-1.216l5.248-5.248-5.248-5.248q-0.512-0.512-0.512-1.216t0.512-1.216l2.432-2.432q0.512-0.512 1.216-0.512t1.216 0.512l5.248 5.248 5.248-5.248q0.512-0.512 1.216-0.512t1.216 0.512l2.432 2.432q0.48 0.48 0.48 1.216t-0.48 1.216l-5.248 5.248 5.248 5.248q0.48 0.48 0.48 1.216z"></path>
</svg>
<svg id="icon-plus" width="25" height="32" viewBox="0 0 25 32" x="432" y="48">
<path d="M25.152 13.152v3.424q0 0.704-0.512 1.216t-1.216 0.48h-7.424v7.456q0 0.704-0.512 1.184t-1.216 0.512h-3.424q-0.704 0-1.216-0.512t-0.48-1.184v-7.456h-7.424q-0.736 0-1.216-0.48t-0.512-1.216v-3.424q0-0.736 0.512-1.216t1.216-0.512h7.424v-7.424q0-0.704 0.48-1.216t1.216-0.512h3.424q0.736 0 1.216 0.512t0.512 1.216v7.424h7.424q0.736 0 1.216 0.512t0.512 1.216z"></path>
</svg>
<svg id="icon-minus" width="25" height="32" viewBox="0 0 25 32" x="480" y="48">
<path d="M25.152 13.152v3.424q0 0.704-0.512 1.216t-1.216 0.48h-21.696q-0.736 0-1.216-0.48t-0.512-1.216v-3.424q0-0.736 0.512-1.216t1.216-0.512h21.696q0.736 0 1.216 0.512t0.512 1.216z"></path>
</svg>
<svg id="icon-plus-squared-alt" width="25" height="32" viewBox="0 0 25 32" x="528" y="48">
<path d="M20.576 14.272v1.152q0 0.256-0.16 0.416t-0.416 0.16h-6.272v6.272q0 0.256-0.16 0.416t-0.416 0.16h-1.152q-0.256 0-0.416-0.16t-0.16-0.416v-6.272h-6.272q-0.256 0-0.416-0.16t-0.16-0.416v-1.152q0-0.224 0.16-0.384t0.416-0.16h6.272v-6.304q0-0.256 0.16-0.416t0.416-0.16h1.152q0.256 0 0.416 0.16t0.16 0.416v6.304h6.272q0.256 0 0.416 0.16t0.16 0.384zM22.848 22.272v-14.848q0-1.184-0.832-2.016t-2.016-0.832h-14.848q-1.184 0-2.016 0.832t-0.864 2.016v14.848q0 1.184 0.864 2.016t2.016 0.864h14.848q1.184 0 2.016-0.864t0.832-2.016zM25.152 7.424v14.848q0 2.144-1.504 3.648t-3.648 1.504h-14.848q-2.144 0-3.648-1.504t-1.504-3.648v-14.848q0-2.112 1.504-3.616t3.648-1.536h14.848q2.112 0 3.648 1.536t1.504 3.616z"></path>
</svg>
<svg id="icon-minus-squared-alt" width="25" height="32" viewBox="0 0 25 32" x="576" y="48">
<path d="M20.576 14.272v1.152q0 0.256-0.16 0.416t-0.416 0.16h-14.848q-0.256 0-0.416-0.16t-0.16-0.416v-1.152q0-0.224 0.16-0.384t0.416-0.16h14.848q0.256 0 0.416 0.16t0.16 0.384zM22.848 22.272v-14.848q0-1.184-0.832-2.016t-2.016-0.832h-14.848q-1.184 0-2.016 0.832t-0.864 2.016v14.848q0 1.184 0.864 2.016t2.016 0.864h14.848q1.184 0 2.016-0.864t0.832-2.016zM25.152 7.424v14.848q0 2.144-1.504 3.648t-3.648 1.504h-14.848q-2.144 0-3.648-1.504t-1.504-3.648v-14.848q0-2.112 1.504-3.616t3.648-1.536h14.848q2.112 0 3.648 1.536t1.504 3.616z"></path>
</svg>
<svg id="icon-pencil" width="27" height="32" viewBox="0 0 27 32" x="624" y="48">
<path d="M6.496 27.424l1.6-1.632-4.192-4.192-1.632 1.632v1.92h2.304v2.272h1.92zM15.808 10.848q0-0.384-0.384-0.384-0.16 0-0.288 0.128l-9.696 9.664q-0.128 0.128-0.128 0.32 0 0.384 0.416 0.384 0.16 0 0.288-0.128l9.696-9.664q0.096-0.128 0.096-0.32zM14.848 7.424l7.424 7.424-14.848 14.88h-7.424v-7.456zM27.040 9.152q0 0.928-0.64 1.6l-2.976 2.976-7.424-7.456 2.976-2.944q0.64-0.672 1.6-0.672 0.928 0 1.632 0.672l4.192 4.192q0.64 0.704 0.64 1.632z"></path>
</svg>
<svg id="icon-quiz" width="32" height="32" viewBox="0 0 32 32" x="672" y="48">
<path d="M30.912 5.728q0.768 0.736 0.768 1.76t-0.768 1.76l-5.92 5.92v15.008q0 0.672-0.48 1.152t-1.184 0.512h-21.632q-0.704 0-1.184-0.512t-0.512-1.152v-21.664q0-0.672 0.512-1.184t1.184-0.48h14.976l5.92-5.92q0.768-0.768 1.76-0.768t1.76 0.768zM14.176 21.28l10.464-10.496-3.584-3.584-10.496 10.464zM9.888 19.072l0.128 2.752 2.816 0.128zM21.696 28.512v-9.984l-5.344 5.12q-0.64 0.64-2.016 1.056t-2.56 0.448h-5.088v-5.088q0-1.312 0.352-2.624t0.992-1.952l5.28-5.344h-9.984v18.368h18.368zM25.856 9.632l2.144-2.144-3.648-3.648-2.144 2.144z"></path>
</svg>
<svg id="icon-print" width="30" height="32" viewBox="0 0 30 32" x="720" y="48">
<path d="M6.848 27.424h16v-4.576h-16v4.576zM6.848 16h16v-6.848h-2.848q-0.704 0-1.216-0.512t-0.512-1.216v-2.848h-11.424v11.424zM27.424 17.152q0-0.48-0.32-0.8t-0.832-0.352-0.8 0.352-0.32 0.8 0.32 0.8 0.8 0.32 0.832-0.32 0.32-0.8zM29.728 17.152v7.424q0 0.224-0.192 0.384t-0.384 0.192h-4v2.848q0 0.704-0.512 1.216t-1.216 0.512h-17.152q-0.704 0-1.184-0.512t-0.512-1.216v-2.848h-4q-0.224 0-0.416-0.192t-0.16-0.384v-7.424q0-1.408 1.024-2.432t2.4-0.992h1.152v-9.728q0-0.704 0.512-1.216t1.184-0.512h12q0.736 0 1.6 0.384t1.344 0.832l2.72 2.72q0.48 0.512 0.864 1.376t0.352 1.568v4.576h1.12q1.44 0 2.432 0.992t1.024 2.432z"></path>
</svg>
<svg id="icon-bulletin" width="32" height="32" viewBox="0 0 32 32" x="0" y="96">
<path d="M6.848 21.152v1.12q0 0.256-0.16 0.416t-0.416 0.16h-1.12q-0.224 0-0.416-0.16t-0.16-0.416v-1.12q0-0.256 0.16-0.416t0.416-0.16h1.12q0.256 0 0.416 0.16t0.16 0.416zM6.848 16.576v1.152q0 0.224-0.16 0.384t-0.416 0.16h-1.12q-0.224 0-0.416-0.16t-0.16-0.384v-1.152q0-0.224 0.16-0.416t0.416-0.16h1.12q0.256 0 0.416 0.16t0.16 0.416zM6.848 12v1.152q0 0.224-0.16 0.384t-0.416 0.192h-1.12q-0.224 0-0.416-0.192t-0.16-0.384v-1.152q0-0.224 0.16-0.416t0.416-0.16h1.12q0.256 0 0.416 0.16t0.16 0.416zM27.424 21.152v1.12q0 0.256-0.16 0.416t-0.416 0.16h-17.12q-0.256 0-0.416-0.16t-0.16-0.416v-1.12q0-0.256 0.16-0.416t0.416-0.16h17.12q0.256 0 0.416 0.16t0.16 0.416zM27.424 16.576v1.152q0 0.224-0.16 0.384t-0.416 0.16h-17.12q-0.256 0-0.416-0.16t-0.16-0.384v-1.152q0-0.224 0.16-0.416t0.416-0.16h17.12q0.256 0 0.416 0.16t0.16 0.416zM27.424 12v1.152q0 0.224-0.16 0.384t-0.416 0.192h-17.12q-0.256 0-0.416-0.192t-0.16-0.384v-1.152q0-0.224 0.16-0.416t0.416-0.16h17.12q0.256 0 0.416 0.16t0.16 0.416zM29.728 24.576v-14.848q0-0.256-0.192-0.416t-0.384-0.16h-26.304q-0.224 0-0.384 0.16t-0.192 0.416v14.848q0 0.224 0.192 0.384t0.384 0.192h26.304q0.224 0 0.384-0.192t0.192-0.384zM32 5.152v19.424q0 1.184-0.832 2.016t-2.016 0.832h-26.304q-1.152 0-2.016-0.832t-0.832-2.016v-19.424q0-1.184 0.832-2.016t2.016-0.864h26.304q1.184 0 2.016 0.864t0.832 2.016z"></path>
</svg>
<svg id="icon-calendar" width="30" height="32" viewBox="0 0 30 32" x="48" y="96">
<path d="M2.272 29.728h5.152v-5.152h-5.152v5.152zM8.576 29.728h5.696v-5.152h-5.696v5.152zM2.272 23.424h5.152v-5.696h-5.152v5.696zM8.576 23.424h5.696v-5.696h-5.696v5.696zM2.272 16.576h5.152v-5.152h-5.152v5.152zM15.424 29.728h5.728v-5.152h-5.728v5.152zM8.576 16.576h5.696v-5.152h-5.696v5.152zM22.272 29.728h5.152v-5.152h-5.152v5.152zM15.424 23.424h5.728v-5.696h-5.728v5.696zM9.152 8v-5.152q0-0.224-0.192-0.384t-0.384-0.192h-1.152q-0.224 0-0.384 0.192t-0.192 0.384v5.152q0 0.224 0.192 0.416t0.384 0.16h1.152q0.224 0 0.384-0.16t0.192-0.416zM22.272 23.424h5.152v-5.696h-5.152v5.696zM15.424 16.576h5.728v-5.152h-5.728v5.152zM22.272 16.576h5.152v-5.152h-5.152v5.152zM22.848 8v-5.152q0-0.224-0.16-0.384t-0.416-0.192h-1.12q-0.224 0-0.416 0.192t-0.16 0.384v5.152q0 0.224 0.16 0.416t0.416 0.16h1.12q0.256 0 0.416-0.16t0.16-0.416zM29.728 6.848v22.88q0 0.928-0.704 1.6t-1.6 0.672h-25.152q-0.928 0-1.6-0.672t-0.672-1.6v-22.88q0-0.928 0.672-1.6t1.6-0.672h2.304v-1.728q0-1.184 0.832-2.016t2.016-0.832h1.152q1.184 0 2.016 0.832t0.832 2.016v1.728h6.848v-1.728q0-1.184 0.864-2.016t2.016-0.832h1.12q1.184 0 2.048 0.832t0.832 2.016v1.728h2.272q0.928 0 1.6 0.672t0.704 1.6z"></path>
</svg>
<svg id="icon-menu" width="27" height="32" viewBox="0 0 27 32" x="96" y="96">
<path d="M27.424 24v2.272q0 0.48-0.32 0.8t-0.832 0.352h-25.12q-0.48 0-0.8-0.352t-0.352-0.8v-2.272q0-0.48 0.352-0.8t0.8-0.352h25.12q0.48 0 0.832 0.352t0.32 0.8zM27.424 14.848v2.304q0 0.448-0.32 0.8t-0.832 0.32h-25.12q-0.48 0-0.8-0.32t-0.352-0.8v-2.304q0-0.448 0.352-0.8t0.8-0.32h25.12q0.48 0 0.832 0.32t0.32 0.8zM27.424 5.728v2.272q0 0.448-0.32 0.8t-0.832 0.352h-25.12q-0.48 0-0.8-0.352t-0.352-0.8v-2.272q0-0.48 0.352-0.832t0.8-0.32h25.12q0.48 0 0.832 0.32t0.32 0.832z"></path>
</svg>
<svg id="icon-alert" width="36" height="32" viewBox="0 0 36 32" x="144" y="96">
<path d="M35.616 29.44q0 1.248-0.864 1.92t-2.176 0.64h-29.536q-1.28 0-2.144-0.672t-0.896-1.888q0-0.96 0.576-1.952l14.752-25.728q1.056-1.76 2.496-1.76t2.432 1.76l14.784 25.76q0.576 1.024 0.576 1.92zM20.032 13.088v-4.672h-4.448v4.672q0 0.448 0.064 0.832t0.192 0.896 0.16 0.864l0.832 5.184h1.888l0.864-5.184q0.064-0.32 0.192-0.832t0.192-0.928 0.064-0.832zM20.032 25.472q0-0.928-0.64-1.568t-1.6-0.64q-0.896 0-1.536 0.64t-0.672 1.568 0.672 1.568 1.536 0.672q0.928 0 1.6-0.672t0.64-1.568z"></path>
</svg>
<svg id="icon-twitter-bird" width="39" height="32" viewBox="0 0 39 32" x="192" y="96">
<path d="M39.392 3.776q-1.632 2.464-4.032 4.192 0.032 0.448 0.032 1.024 0 3.264-0.96 6.496-0.928 3.264-2.88 6.24-1.952 2.944-4.64 5.248t-6.432 3.648q-3.776 1.376-8.096 1.376-6.72 0-12.384-3.616 0.992 0.096 1.92 0.096 5.632 0 10.048-3.456-2.624-0.064-4.704-1.632-2.048-1.568-2.848-4 0.768 0.16 1.536 0.16 1.088 0 2.112-0.288-2.784-0.544-4.64-2.784-1.824-2.208-1.824-5.12v-0.128q1.696 0.96 3.648 1.024-1.664-1.088-2.624-2.88-0.96-1.76-0.96-3.84 0-2.176 1.088-4.064 3.040 3.744 7.36 5.952 4.32 2.24 9.28 2.496-0.192-0.896-0.192-1.856 0-3.328 2.368-5.696t5.696-2.368q3.52 0 5.92 2.56 2.72-0.544 5.12-1.984-0.928 2.912-3.552 4.48 2.432-0.288 4.64-1.28z"></path>
</svg>
<svg id="icon-down-dir" width="18" height="32" viewBox="0 0 18 32" x="240" y="96">
<path d="M18.272 12.576q0 0.448-0.32 0.8l-8 8q-0.352 0.352-0.8 0.352t-0.8-0.352l-8-8q-0.352-0.352-0.352-0.8t0.352-0.8 0.8-0.352h16q0.448 0 0.8 0.352t0.32 0.8z"></path>
</svg>
<svg id="icon-up-dir" width="18" height="32" viewBox="0 0 18 32" x="288" y="96">
<path d="M18.272 21.728q0 0.448-0.32 0.8t-0.8 0.32h-16q-0.48 0-0.8-0.32t-0.352-0.8 0.352-0.832l8-8q0.32-0.32 0.8-0.32t0.8 0.32l8 8q0.32 0.352 0.32 0.832z"></path>
</svg>
<svg id="icon-left-dir" width="11" height="32" viewBox="0 0 11 32" x="336" y="96">
<path d="M11.424 8v16q0 0.448-0.32 0.8t-0.832 0.352-0.8-0.352l-8-8q-0.32-0.352-0.32-0.8t0.32-0.8l8-8q0.352-0.352 0.8-0.352t0.832 0.352 0.32 0.8z"></path>
</svg>
<svg id="icon-right-dir" width="11" height="32" viewBox="0 0 11 32" x="384" y="96">
<path d="M10.272 16q0 0.448-0.32 0.8l-8 8q-0.352 0.352-0.8 0.352t-0.8-0.352-0.352-0.8v-16q0-0.48 0.352-0.8t0.8-0.352 0.8 0.352l8 8q0.32 0.32 0.32 0.8z"></path>
</svg>
<svg id="icon-angle-circled-down" width="27" height="32" viewBox="0 0 27 32" x="432" y="96">
<path d="M14.528 23.2l8.096-8.128q0.352-0.32 0.352-0.8t-0.352-0.8l-1.824-1.824q-0.32-0.32-0.8-0.32t-0.8 0.32l-5.472 5.504-5.504-5.504q-0.32-0.32-0.8-0.32t-0.8 0.32l-1.824 1.824q-0.32 0.352-0.32 0.8t0.32 0.8l8.128 8.128q0.32 0.32 0.8 0.32t0.8-0.32zM27.424 16q0 3.744-1.824 6.88t-4.992 4.992-6.88 1.856-6.912-1.856-4.96-4.992-1.856-6.88 1.856-6.88 4.96-4.992 6.912-1.856 6.88 1.856 4.992 4.992 1.824 6.88z"></path>
</svg>
<svg id="icon-angle-circled-up" width="27" height="32" viewBox="0 0 27 32" x="480" y="96">
<path d="M20.8 20.352l1.824-1.824q0.352-0.352 0.352-0.8t-0.352-0.832l-8.096-8.096q-0.352-0.352-0.8-0.352t-0.8 0.352l-8.128 8.096q-0.32 0.352-0.32 0.832t0.32 0.8l1.824 1.824q0.352 0.32 0.8 0.32t0.8-0.32l5.504-5.504 5.472 5.504q0.352 0.32 0.8 0.32t0.8-0.32zM27.424 16q0 3.744-1.824 6.88t-4.992 4.992-6.88 1.856-6.912-1.856-4.96-4.992-1.856-6.88 1.856-6.88 4.96-4.992 6.912-1.856 6.88 1.856 4.992 4.992 1.824 6.88z"></path>
</svg>
<svg id="icon-angle-circled-right" width="27" height="32" viewBox="0 0 27 32" x="528" y="96">
<path d="M12.8 24.896l8.128-8.096q0.32-0.352 0.32-0.8t-0.32-0.8l-8.128-8.128q-0.32-0.32-0.8-0.32t-0.8 0.32l-1.824 1.824q-0.352 0.352-0.352 0.832t0.352 0.8l5.472 5.472-5.472 5.472q-0.352 0.352-0.352 0.8t0.352 0.8l1.824 1.824q0.352 0.352 0.8 0.352t0.8-0.352zM27.424 16q0 3.744-1.824 6.88t-4.992 4.992-6.88 1.856-6.912-1.856-4.96-4.992-1.856-6.88 1.856-6.88 4.96-4.992 6.912-1.856 6.88 1.856 4.992 4.992 1.824 6.88z"></path>
</svg>
<svg id="icon-videocam" width="32" height="32" viewBox="0 0 32 32" x="576" y="96">
<path d="M32 6.272v19.456q0 0.736-0.704 1.024-0.224 0.096-0.448 0.096-0.48 0-0.8-0.32l-7.2-7.2v2.944q0 2.144-1.504 3.648t-3.616 1.504h-12.576q-2.144 0-3.648-1.504t-1.504-3.648v-12.544q0-2.144 1.504-3.648t3.648-1.504h12.576q2.112 0 3.616 1.504t1.504 3.648v2.944l7.2-7.2q0.32-0.32 0.8-0.32 0.224 0 0.448 0.064 0.704 0.32 0.704 1.056z"></path>
</svg>
<svg id="icon-icons-03" width="42" height="32" viewBox="0 0 42 32" x="624" y="96">
<path d="M19.456 32h-0.352c-1.807-0.026-3.354-1.11-4.053-2.66l-0.011-0.028-8.32 0.864c-0.39 0.66-1.098 1.095-1.907 1.095-0.934 0-1.733-0.58-2.056-1.4l-0.005-0.015-2.624-7.2c-0.088-0.229-0.139-0.494-0.139-0.77 0-1.219 0.989-2.208 2.208-2.208 0.268 0 0.524 0.048 0.762 0.135l-0.015-0.005 25.312-17.184c-0.013-0.094-0.021-0.203-0.021-0.314 0-1.325 1.075-2.4 2.4-2.4 1.072 0 1.98 0.703 2.288 1.673l0.005 0.017 8.448 23.264c0.119 0.275 0.189 0.596 0.189 0.932 0 1.325-1.075 2.4-2.4 2.4-0.839 0-1.578-0.431-2.007-1.083l-0.006-0.009-10.912 1.056c-0.384 1.728-1.76 3.296-3.744 3.52zM17.696 26.048v1.664c0 0.576 0.672 1.312 1.408 1.312h0.192l2.88-0.32c0.864-0.064 1.28-1.088 1.216-1.76l-0.128-1.472 14.624-1.472-7.072-19.488-27.36 18.56 1.568 4.256zM30.144 2.592v0z"></path>
</svg>
<svg id="icon-icons-04" width="19" height="32" viewBox="0 0 19 32" x="0" y="144">
<path d="M4 32c-0.238-0.001-0.47-0.024-0.696-0.068l0.023 0.004c-1.312-0.224-2.4-1.152-3.008-2.528s-0.352-2.816 0.672-4c0.608-0.704 1.248-1.312 1.888-1.952l0.416-0.416 5.248-5.344c0.079-1.219 0.549-2.314 1.286-3.175l-0.006 0.007c0.051-0.072 0.086-0.159 0.096-0.254l0-0.002c0.032-3.424 0.032-6.88 0.032-10.208 0-1.6 0.8-2.848 2.272-3.616 0.896-0.48 2.336-0.8 3.968 0.256l0.032 0.032c1.050 0.725 1.729 1.921 1.729 3.276 0 0.030-0 0.059-0.001 0.088l0-0.004v6.912c0 1.12 0 2.272 0 3.456l0.064 0.032c1.408 1.696 1.728 3.616 0.96 5.568-0.8 2.016-2.4 3.2-4.672 3.424-0.037 0.008-0.069 0.019-0.099 0.033l0.003-0.001q-1.152 1.152-2.336 2.336c-1.536 1.504-3.136 3.104-4.672 4.672-0.928 0.96-2.048 1.472-3.2 1.472zM13.984 2.4c-0.004-0-0.008-0-0.012-0-0.241 0-0.468 0.059-0.668 0.164l0.008-0.004c-0.704 0.384-0.992 0.8-0.992 1.504 0 3.328 0 6.816-0.032 10.208-0.012 0.655-0.239 1.255-0.613 1.735l0.005-0.007c-0.544 0.704-0.768 1.248-0.768 1.888 0 0.002 0 0.004 0 0.007 0 0.505-0.195 0.964-0.513 1.307l0.001-0.001-5.408 5.504-0.448 0.448c-0.608 0.608-1.216 1.216-1.76 1.824s-0.416 1.152-0.288 1.44c0.288 0.672 0.736 1.088 1.248 1.184 0.576 0.096 1.216-0.16 1.76-0.736 1.536-1.568 3.136-3.168 4.704-4.704q1.184-1.184 2.336-2.336c0.398-0.373 0.918-0.619 1.494-0.671l0.010-0.001h0.032c1.344-0.16 2.208-0.768 2.688-1.952 0.448-1.152 0.256-2.144-0.608-3.168v0c-0.332-0.377-0.544-0.865-0.576-1.402l-0-0.006c-0.032-1.216 0-2.432 0-3.616 0-0.576 0-1.152 0-1.728v0-5.184c0.001-0.024 0.002-0.053 0.002-0.081 0-0.55-0.278-1.035-0.7-1.323l-0.006-0.004c-0.251-0.173-0.56-0.28-0.894-0.288l-0.002-0zM8.544 17.888v0zM8.704 17.536v0zM17.952 14.56s0 0.032 0 0.032 0 0 0-0.032z"></path>
</svg>
<svg id="icon-icons-02" width="31" height="32" viewBox="0 0 31 32" x="48" y="144">
<path d="M0 22.816v-18.976c0.416-0.896 1.088-1.216 2.112-1.216 3.232 0.032 6.432 0 9.664 0h1.92c-0.045-0.269-0.071-0.58-0.071-0.896 0-0.101 0.003-0.202 0.008-0.302l-0.001 0.014c0.064-0.736 0.64-1.12 1.248-1.44h0.928c1.088 0.544 1.568 1.376 1.12 2.624h11.776c1.408 0 2.016 0.576 2.016 1.984v17.376c0 1.408-0.576 1.984-1.984 1.984h-9.6c0.064 0.384 0.16 0.608 0.192 0.864 0.544 1.856 1.088 3.776 1.568 5.632 0.096 0.352 0.096 0.896-0.128 1.088-0.704 0.832-2.048 0.448-2.336-0.576-0.544-1.824-1.056-3.616-1.536-5.44-0.448-1.6-0.448-1.568-2.112-1.6-0.040-0.008-0.086-0.013-0.133-0.013-0.342 0-0.624 0.255-0.667 0.586l-0 0.003c-0.576 2.144-1.184 4.32-1.824 6.464-0.224 0.96-0.768 1.152-1.92 0.832-0.672-0.224-0.8-0.576-0.544-1.472l1.344-4.832c0.128-0.512 0.256-0.992 0.416-1.568h-0.704c-2.912 0-5.824-0.064-8.768 0-0.896 0.128-1.568-0.224-1.984-1.12zM27.552 5.536h-24.416v15.232h24.416z"></path>
</svg>
</svg>
